D:\torrente\Goyas.Ghosts.2006.720p.LiMiTED.BluRay.x264-FZHD\Goyas.Ghosts.2006.720p.BluRay.x264-FZHD.mkv
   General
      Unique ID : 195104676925589914229323771927529662755 (0x92C7CB40D686079095A85EA2915A2923)
      Complete name : D:\torrente\Goyas.Ghosts.2006.720p.LiMiTED.BluRay.x264-FZHD\Goyas.Ghosts.2006.720p.BluRay.x264-FZHD.mkv
      Format : Matroska
      File size : 5.46 GiB
      Duration : 1h 53mn
      Overall bit rate : 6 870 Kbps
      Encoded date : UTC 2011-10-30 07:06:29
      Writing application : mkvmerge v4.9.1 ('Ich will') built on Jul 11 2011 23:53:15
      Writing library : libebml v1.2.1 + libmatroska v1.1.1
   Video #1
      ID : 1
      Format : AVC
      Format/Info : Advanced Video Codec
      Format profile : High@L3.1
      Format settings, CABAC : Yes
      Format settings, ReFrames : 5 frames
      Muxing mode : Header stripping
      Codec ID : V_MPEG4/ISO/AVC
      Duration : 1h 53mn
      Bit rate : 5 363 Kbps
      Width : 1 280 pixels
      Height : 688 pixels
      Display aspect ratio : 1.860
      Frame rate : 23.976 fps
      Color space : YUV
      Chroma subsampling : 4:2:0
      Bit depth : 8 bits
      Scan type : Progressive
      Bits/(Pixel*Frame) : 0.254
      Stream size : 4.15 GiB (76%)
      Writing library : x264 core 119 r2106 07efeb4
      Encoding settings : cabac=1 / ref=5 / deblock=1:0:0 / analyse=0x3:0x113 / me=umh / subme=7 / psy=1 / psy_rd=1.00:0.00 / mixed_ref=1 / me_range=16 / chroma_me=1 / trellis=1 / 8x8dct=1 / cqm=0 / deadzone=21,11 / fast_pskip=0 / chroma_qp_offset=-2 / threads=9 / sliced_threads=0 / nr=0 / decimate=1 / interlaced=0 / bluray_compat=0 / constrained_intra=0 / bframes=3 / b_pyramid=2 / b_adapt=1 / b_bias=0 / direct=1 / weightb=1 / open_gop=0 / weightp=2 / keyint=250 / keyint_min=23 / scenecut=40 / intra_refresh=0 / rc_lookahead=40 / rc=2pass / mbtree=1 / bitrate=5363 / ratetol=1.0 / qcomp=0.60 / qpmin=0 / qpmax=69 / qpstep=4 / cplxblur=20.0 / qblur=0.5 / ip_ratio=1.40 / aq=1:1.00
      Language : English
   Audio #2
      ID : 2
      Format : DTS
      Format/Info : Digital Theater Systems
      Muxing mode : Header stripping
      Codec ID : A_DTS
      Duration : 1h 53mn
      Bit rate mode : Constant
      Bit rate : 1 510 Kbps
      Channel(s) : 6 channels
      Channel positions : Front: L C R, Side: L R, LFE
      Sampling rate : 48.0 KHz
      Bit depth : 24 bits
      Compression mode : Lossy
      Stream size : 1.20 GiB (22%)
      Language : English
   Text #3
      ID : 3
      Format : UTF-8
      Codec ID : S_TEXT/UTF8
      Codec ID/Info : UTF-8 Plain Text
      Title : Româna
      Language : Romanian